<svg xmlns="http://www.w3.org/2000/svg" width="24" height="24" viewBox="0 0 24 24">
  <defs>
    <linearGradient id="a" x1="0%" y1="0%" x2="100%" y2="100%">
      <stop offset="0%" stop-color="#4285F4"/>
      <stop offset="100%" stop-color="#0F9D58"/>
    </linearGradient>
  </defs>
  <g fill="none" fill-rule="evenodd">
    <path fill="url(#a)" d="M12 2C6.48 2 2 6.48 2 12s4.48 10 10 10 10-4.48 10-10S17.52 2 12 2zm0 18c-4.41 0-8-3.59-8-8s3.59-8 8-8 8 3.59 8 8-3.59 8-8 8z"/>
    <path fill="#4285F4" d="M7 12h2v6H7zm4-4h2v10h-2zm4 2h2v8h-2z"/>
    <path fill="#0F9D58" d="M12 11a1 1 0 100-2 1 1 0 000 2zm-4 4a1 1 0 100-2 1 1 0 000 2zm8-2a1 1 0 100-2 1 1 0 000 2z"/>
  </g>
</svg>